<svg width="450" height="450" viewBox="0 0 450 450" fill="none" xmlns="http://www.w3.org/2000/svg">
  <circle cx="293" cy="357" r="15" fill="currentColor" />
  <circle cx="260" cy="357" r="15" fill="currentColor" />
  <circle cx="227" cy="357" r="15" fill="currentColor" />
  <circle cx="194" cy="357" r="15" fill="currentColor" />
  <circle cx="161" cy="357" r="15" fill="currentColor" />
  <circle cx="326" cy="324" r="15" fill="currentColor" />
  <circle cx="293" cy="324" r="15" fill="currentColor" />
  <circle cx="161" cy="324" r="15" fill="currentColor" />
  <circle cx="128" cy="324" r="15" fill="currentColor" />
  <circle cx="359" cy="291" r="15" fill="currentColor" />
  <circle cx="326" cy="291" r="15" fill="currentColor" />
  <circle cx="128" cy="291" r="15" fill="currentColor" />
  <circle cx="95" cy="291" r="15" fill="currentColor" />
  <circle cx="359" cy="258" r="15" fill="currentColor" />
  <circle cx="326" cy="258" r="15" fill="currentColor" />
  <circle cx="128" cy="258" r="15" fill="currentColor" />
  <circle cx="95" cy="258" r="15" fill="currentColor" />
  <circle cx="359" cy="225" r="15" fill="currentColor" />
  <circle cx="326" cy="225" r="15" fill="currentColor" />
  <circle cx="293" cy="225" r="15" fill="currentColor" />
  <circle cx="260" cy="225" r="15" fill="currentColor" />
  <circle cx="227" cy="225" r="15" fill="currentColor" />
  <circle cx="194" cy="225" r="15" fill="currentColor" />
  <circle cx="161" cy="225" r="15" fill="currentColor" />
  <circle cx="128" cy="225" r="15" fill="currentColor" />
  <circle cx="95" cy="225" r="15" fill="currentColor" />
  <circle cx="359" cy="192" r="15" fill="currentColor" />
  <circle cx="326" cy="192" r="15" fill="currentColor" />
  <circle cx="260" cy="192" r="15" fill="currentColor" />
  <circle cx="227" cy="192" r="15" fill="currentColor" />
  <circle cx="194" cy="192" r="15" fill="currentColor" />
  <circle cx="128" cy="192" r="15" fill="currentColor" />
  <circle cx="95" cy="192" r="15" fill="currentColor" />
  <circle cx="359" cy="159" r="15" fill="currentColor" />
  <circle cx="326" cy="159" r="15" fill="currentColor" />
  <circle cx="260" cy="159" r="15" fill="currentColor" />
  <circle cx="227" cy="159" r="15" fill="currentColor" />
  <circle cx="194" cy="159" r="15" fill="currentColor" />
  <circle cx="128" cy="159" r="15" fill="currentColor" />
  <circle cx="95" cy="159" r="15" fill="currentColor" />
  <circle cx="326" cy="126" r="15" fill="currentColor" />
  <circle cx="293" cy="126" r="15" fill="currentColor" />
  <circle cx="260" cy="126" r="15" fill="currentColor" />
  <circle cx="227" cy="126" r="15" fill="currentColor" />
  <circle cx="194" cy="126" r="15" fill="currentColor" />
  <circle cx="161" cy="126" r="15" fill="currentColor" />
  <circle cx="128" cy="126" r="15" fill="currentColor" />
  <circle cx="293" cy="93" r="15" fill="currentColor" />
  <circle cx="260" cy="93" r="15" fill="currentColor" />
  <circle cx="227" cy="93" r="15" fill="currentColor" />
  <circle cx="194" cy="93" r="15" fill="currentColor" />
  <circle cx="161" cy="93" r="15" fill="currentColor" />
</svg>