<svg width="450" height="450" viewBox="0 0 450 450" fill="none" xmlns="http://www.w3.org/2000/svg">
  <circle cx="312" cy="347" r="15" fill="currentColor" />
  <circle cx="277" cy="347" r="15" fill="currentColor" />
  <circle cx="137" cy="347" r="15" fill="currentColor" />
  <circle cx="102" cy="347" r="15" fill="currentColor" />
  <circle cx="347" cy="312" r="15" fill="currentColor" />
  <circle cx="312" cy="312" r="15" fill="currentColor" />
  <circle cx="277" cy="312" r="15" fill="currentColor" />
  <circle cx="172" cy="312" r="15" fill="currentColor" />
  <circle cx="137" cy="312" r="15" fill="currentColor" />
  <circle cx="102" cy="312" r="15" fill="currentColor" />
  <circle cx="347" cy="277" r="15" fill="currentColor" />
  <circle cx="172" cy="277" r="15" fill="currentColor" />
  <circle cx="347" cy="242" r="15" fill="currentColor" />
  <circle cx="172" cy="242" r="15" fill="currentColor" />
  <circle cx="347" cy="207" r="15" fill="currentColor" />
  <circle cx="172" cy="207" r="15" fill="currentColor" />
  <circle cx="347" cy="172" r="15" fill="currentColor" />
  <circle cx="312" cy="172" r="15" fill="currentColor" />
  <circle cx="277" cy="172" r="15" fill="currentColor" />
  <circle cx="242" cy="172" r="15" fill="currentColor" />
  <circle cx="207" cy="172" r="15" fill="currentColor" />
  <circle cx="172" cy="172" r="15" fill="currentColor" />
  <circle cx="347" cy="137" r="15" fill="currentColor" />
  <circle cx="312" cy="137" r="15" fill="currentColor" />
  <circle cx="277" cy="137" r="15" fill="currentColor" />
  <circle cx="242" cy="137" r="15" fill="currentColor" />
  <circle cx="207" cy="137" r="15" fill="currentColor" />
  <circle cx="172" cy="137" r="15" fill="currentColor" />
  <circle cx="347" cy="102" r="15" fill="currentColor" />
  <circle cx="312" cy="102" r="15" fill="currentColor" />
  <circle cx="277" cy="102" r="15" fill="currentColor" />
  <circle cx="242" cy="102" r="15" fill="currentColor" />
  <circle cx="207" cy="102" r="15" fill="currentColor" />
  <circle cx="172" cy="102" r="15" fill="currentColor" />
</svg>