<svg xmlns="http://www.w3.org/2000/svg" height="24px" viewBox="0 -960 960 960" width="24px" fill="#e8eaed"><path d="M291.55-108.96q-43.28 0-73.32-29.89-30.04-29.89-30.04-73 0-35.29 21.32-62.92 21.32-27.64 53.88-36.77v-336.92q-32.78-9.02-54.24-36.45-21.46-27.44-21.46-62.71 0-43.43 30.23-73.86 30.23-30.44 73.54-30.44 43.14 0 73.61 30.37t30.47 73.7q0 35.5-21.58 62.95-21.58 27.44-54.61 36.44v15.42q0 52.09 36 88.52 36.01 36.44 87.5 36.44h74.73q74.37 0 126.76 52.9t52.39 127.64v16q32.97 9.13 54.52 36.57 21.56 27.45 21.56 62.74 0 43.11-30.73 73.19t-73.68 30.08q-43.13 0-73.03-30.08-29.91-30.08-29.91-73.19 0-35.29 21.27-62.74 21.26-27.44 54.04-36.57v-16q0-51.51-35.81-88.04-35.82-36.54-87.31-36.54h-74.8q-36.85 0-68.31-14.12-31.47-14.13-55.19-38.61v193.31q33.16 9.13 54.42 36.57 21.27 27.45 21.27 62.74 0 43.11-30.2 73.19t-73.29 30.08Zm-.09-55.08q20.29 0 33.95-13.77 13.67-13.77 13.67-33.94 0-20.17-13.67-33.94-13.66-13.77-33.95-13.77-20.1 0-33.95 13.85-13.86 13.86-13.86 33.76 0 20.1 13.86 33.96 13.85 13.85 33.95 13.85Zm376.89 0q20.29 0 33.95-13.77 13.66-13.77 13.66-33.94 0-20.17-13.66-33.94-13.66-13.77-33.95-13.77-20.1 0-33.96 13.85-13.85 13.86-13.85 33.76 0 20.1 13.85 33.96 13.86 13.85 33.96 13.85Zm-376.89-536.5q20.29 0 33.95-13.61 13.67-13.62 13.67-33.7 0-20.07-13.67-34.09-13.66-14.02-33.95-14.02-20.1 0-33.95 14.11-13.86 14.12-13.86 34 0 19.7 13.86 33.5 13.85 13.81 33.95 13.81Z"/></svg>