<svg xmlns="http://www.w3.org/2000/svg" height="24px" viewBox="0 -960 960 960" width="24px" fill="#e8eaed"><path d="M299.85-291.73v-376.23q0-11.44 8.22-19.66 8.23-8.22 19.77-8.22t19.76 8.22q8.21 8.22 8.21 19.66v376.23q0 11.63-8.23 19.76-8.22 8.12-19.77 8.12-11.54 0-19.75-8.12-8.21-8.13-8.21-19.76Zm152.27 156.08v-688.39q0-11.44 8.12-19.66 8.13-8.22 19.77-8.22 11.64 0 19.85 8.22 8.22 8.22 8.22 19.66v688.39q0 11.63-8.23 19.75-8.22 8.13-19.86 8.13-11.64 0-19.76-8.13-8.11-8.12-8.11-19.75Zm-304.04-309.5v-70.7q0-11.44 8.22-19.66 8.23-8.22 19.77-8.22 11.55 0 19.76 8.22t8.21 19.66v70.7q0 11.63-8.23 19.85-8.22 8.22-19.77 8.22-11.54 0-19.75-8.22t-8.21-19.85Zm455.81 153.42v-376.23q0-11.44 8.12-19.66 8.13-8.22 19.77-8.22 11.64 0 19.85 8.22 8.22 8.22 8.22 19.66v376.23q0 11.63-8.23 19.76-8.22 8.12-19.86 8.12-11.64 0-19.76-8.12-8.11-8.13-8.11-19.76Zm152.07-153.42v-70.7q0-11.44 8.23-19.66 8.22-8.22 19.77-8.22 11.54 0 19.75 8.22t8.21 19.66v70.7q0 11.63-8.22 19.85-8.23 8.22-19.77 8.22-11.55 0-19.76-8.22t-8.21-19.85Z"/></svg>