<svg xmlns="http://www.w3.org/2000/svg" height="24px" viewBox="0 -960 960 960" width="24px" fill="currentColor"><path d="M633.76-188.08q-42.99 0-73.13-30.08-30.13-30.09-30.13-73.19 0-43.41 30.2-73.72 30.2-30.31 73.15-30.31 12.99 0 25.22 3.77 12.24 3.76 22.78 11.07v-278.38q0-13.91 9.79-23.45 9.8-9.55 23.71-9.55h103.57q13.91 0 23.45 9.54 9.55 9.55 9.55 23.44 0 13.9-9.55 23.61-9.54 9.72-23.45 9.72h-81.11v334.26q0 43.1-30.38 73.19-30.38 30.08-73.67 30.08ZM176.15-356.73q-11.63 0-19.85-8.23-8.22-8.22-8.22-19.77 0-11.54 8.22-19.75t19.85-8.21h241.58q11.44 0 19.66 8.22 8.23 8.23 8.23 19.77t-8.23 19.76q-8.22 8.21-19.66 8.21H176.15Zm0-139.62q-11.63 0-19.85-8.22-8.22-8.23-8.22-19.77t8.22-19.76q8.22-8.21 19.85-8.21h394.16q11.44 0 19.66 8.23 8.22 8.22 8.22 19.77 0 11.54-8.22 19.75t-19.66 8.21H176.15Zm0-139.61q-11.63 0-19.85-8.23-8.22-8.22-8.22-19.77 0-11.54 8.22-19.75t19.85-8.21h394.16q11.44 0 19.66 8.22 8.22 8.23 8.22 19.77 0 11.55-8.22 19.76t-19.66 8.21H176.15Z"/></svg>