<svg xmlns="http://www.w3.org/2000/svg" height="24px" viewBox="0 -960 960 960" width="24px" fill="currentColor"><path d="M251.89-303.04v-354.11q0-11.46 8.21-19.68 8.21-8.21 19.77-8.21 11.55 0 19.77 8.21 8.21 8.22 8.21 19.68v354.11q0 11.65-8.21 19.87-8.22 8.21-19.77 8.21-11.56 0-19.77-8.21-8.21-8.22-8.21-19.87Zm403.22-7.15-211.57-141.5q-7.73-5.12-11.5-12.5-3.77-7.39-3.77-15.81 0-8.42 3.77-15.81 3.77-7.38 11.5-12.5L655.11-650q4.43-3.11 9.2-4.36 4.77-1.25 9.77-1.25 13.46 0 23.75 9.53 10.28 9.54 10.28 25v281.96q0 15.66-10.28 25.1-10.29 9.44-23.75 9.44-5 0-9.77-1.15-4.77-1.16-9.2-4.46Z"/></svg>