<svg xmlns="http://www.w3.org/2000/svg" height="24px" viewBox="0 -960 960 960" width="24px" fill="#e8eaed"><path d="M136.15-147.27q-11.63 0-19.85-8.23-8.22-8.22-8.22-19.76 0-11.55 8.22-19.76t19.85-8.21h687.89q11.44 0 19.66 8.22 8.22 8.23 8.22 19.77 0 11.55-8.22 19.76t-19.66 8.21H136.15Zm25.08-125.3q-13.96-13.95-13.96-34.12v-138.37q0-19.81 13.95-33.74 13.94-13.93 34.01-13.93 20.08 0 34.04 13.95t13.96 33.93v138.37q0 20-13.94 33.93-13.95 13.93-34.02 13.93-20.08 0-34.04-13.95Zm189.54 0q-13.96-13.95-13.96-34.12v-338.16q0-19.98 13.94-33.93 13.95-13.95 33.93-13.95 19.97 0 34.03 13.95 14.06 13.95 14.06 33.93v338.16q0 20.17-14.04 34.12-14.04 13.95-34.02 13.95-19.98 0-33.94-13.95Zm189.73 0q-13.96-13.95-13.96-34.12v-218q0-20.18 13.94-34.11 13.95-13.93 34.02-13.93 20.08 0 34.04 13.95t13.96 33.93v218.01q0 20.36-13.95 34.29-13.94 13.93-34.02 13.93-20.07 0-34.03-13.95Zm190.23 0q-13.96-13.95-13.96-34.12v-458.16q0-19.98 13.94-33.93 13.95-13.95 34.02-13.95 20.08 0 34.04 13.95t13.96 33.93v458.16q0 20.17-13.95 34.12-13.94 13.95-34.01 13.95-20.08 0-34.04-13.95Z"/></svg>