<svg xmlns="http://www.w3.org/2000/svg" height="24px" viewBox="0 -960 960 960" width="24px" fill="#e8eaed"><path d="m480-441.08 122.92 122.93q7.81 7.8 19.27 8 11.46.19 19.66-8 8.19-8.2 8.19-19.47 0-11.26-8.19-19.46L518.92-480l122.93-122.92q7.8-7.81 8-19.27.19-11.46-8-19.66-8.2-8.19-19.47-8.19-11.26 0-19.46 8.19L480-518.92 357.08-641.85q-7.81-7.8-19.27-8-11.46-.19-19.66 8-8.19 8.2-8.19 19.47 0 11.26 8.19 19.46L441.08-480 318.15-357.08q-7.8 7.81-8 19.27-.19 11.46 8 19.66 8.2 8.19 19.47 8.19 11.26 0 19.46-8.19L480-441.08Zm.09 333q-77.24 0-145-29.31-67.75-29.31-118.1-79.59-50.35-50.29-79.63-117.99-29.28-67.69-29.28-144.94 0-77.24 29.31-145 29.31-67.75 79.59-118.1 50.29-50.35 117.99-79.63 67.69-29.28 144.94-29.28 77.24 0 145 29.31 67.75 29.31 118.1 79.59 50.35 50.29 79.63 117.99 29.28 67.69 29.28 144.94 0 77.24-29.31 145-29.31 67.75-79.59 118.1-50.29 50.35-117.99 79.63-67.69 29.28-144.94 29.28Zm-.1-55.96q131.89 0 223.93-92.02 92.04-92.03 92.04-223.93 0-131.89-92.02-223.93-92.03-92.04-223.93-92.04-131.89 0-223.93 92.02-92.04 92.03-92.04 223.93 0 131.89 92.02 223.93 92.03 92.04 223.93 92.04ZM480-480Z"/></svg>