<svg xmlns="http://www.w3.org/2000/svg" height="24px" viewBox="0 -960 960 960" width="24px" fill="#e8eaed"><path d="M760.04-133.23q-36.54 0-65.04-22.5-28.51-22.5-38.05-57.5H440q-60.7 0-103.73-43.07-43.04-43.07-43.04-103.81t43.04-103.7Q379.3-506.77 440-506.77h80q38.56 0 65.9-27.29 27.33-27.29 27.33-65.79 0-38.5-27.33-65.94-27.34-27.44-65.9-27.44H303.03q-10.07 35-38.3 57.5-28.23 22.5-64.76 22.5-44.58 0-75.66-31.18-31.08-31.17-31.08-75.66 0-44.49 31.16-75.6 31.16-31.1 75.57-31.1 36.52 0 64.73 22.5 28.2 22.5 38.37 57.5H520q60.7 0 103.73 43.07 43.04 43.07 43.04 103.81t-43.04 103.7Q580.7-453.23 520-453.23h-80q-38.56 0-65.9 27.29-27.33 27.29-27.33 65.79 0 38.5 27.33 65.94 27.34 27.44 65.9 27.44h216.97q10.07-35 38.3-57.5 28.23-22.5 64.76-22.5 44.58 0 75.66 31.18 31.08 31.17 31.08 75.66 0 44.49-31.16 75.6-31.16 31.1-75.57 31.1ZM235.92-684.08q14.89-14.88 14.89-35.92t-14.89-35.92q-14.88-14.89-35.92-14.89t-35.92 14.89q-14.89 14.88-14.89 35.92t14.89 35.92q14.88 14.89 35.92 14.89t35.92-14.89Z"/></svg>