<svg xmlns="http://www.w3.org/2000/svg" height="24px" viewBox="0 -960 960 960" width="24px" fill="#e8eaed"><path d="M440.04-108.08q-23.26 0-39.61-16.35-16.35-16.35-16.35-39.61v-186.35H256.73q-28.64 0-48.65-19.81-20-19.81-20-48.07v-268.69q0-51.85 37.26-88.4 37.26-36.56 89.77-36.56h422.77q14.13 0 24.09 9.95 9.95 9.96 9.95 24.09v359.61q0 28.26-20.2 48.07-20.19 19.81-48.84 19.81H575.54v186.35q0 23.26-16.35 39.61-16.36 16.35-39.61 16.35h-79.54Zm-196-440.27h471.92v-207.61h-53v123.42q0 11.66-8.21 19.77-8.21 8.12-19.87 8.12-11.65 0-19.76-8.12-8.12-8.11-8.12-19.77v-123.42h-59.04v50.04q0 11.65-8.25 19.77-8.26 8.11-19.73 8.11t-19.73-8.11q-8.25-8.12-8.25-19.77v-50.04H315.36q-30.21 0-50.77 19.84-20.55 19.85-20.55 49.12v138.65Zm12.69 142h446.15q5.39 0 9.24-3.46 3.84-3.46 3.84-8.46v-74.12H244.04v74.12q0 5 3.65 8.46 3.66 3.46 9.04 3.46Zm-12.69 0v-86.04 86.04Z"/></svg>