<svg xmlns="http://www.w3.org/2000/svg" height="24px" viewBox="0 -960 960 960" width="24px" fill="#e8eaed"><path d="M478.92-147.27q-117.79 0-207.82-72.25-90.02-72.25-115.94-184.53-3.24-11.49 3.48-21.33 6.72-9.84 19.05-11.47 11.35-1.42 20.52 4.64t12.52 17.62q22.35 92.36 96.96 151.86 74.62 59.5 171.28 59.5 115.3 0 196.01-80.7t80.71-195.98q0-115.78-80.92-196.32-80.91-80.54-196.65-80.54-63.96 0-120.14 28.46-56.17 28.46-96.56 77.54h74.12q11.65 0 19.86 8.21 8.22 8.21 8.22 19.77 0 11.56-8.22 19.77-8.21 8.21-19.86 8.21H203.46q-14.34 0-24.19-9.94-9.84-9.94-9.84-24.29v-132.15q0-11.4 8.11-19.61 8.12-8.2 19.77-8.2t19.86 8.23q8.22 8.22 8.22 19.65v66.08q47.88-55.84 113.52-86.77 65.64-30.92 139.12-30.92 69.24 0 130.03 26.21 60.79 26.21 105.88 71.31 45.1 45.1 71.4 105.55 26.31 60.45 26.31 129.63 0 69.18-26.31 129.66-26.3 60.48-71.4 105.58-45.09 45.1-105.58 71.31-60.48 26.21-129.44 26.21Zm30.35-344.12 108.69 108.74q8.12 8.3 8.31 19.77.19 11.46-8.31 20.05-8.5 8.6-19.86 8.6-11.37 0-19.87-8.69L463.37-458.61q-5.14-5.12-7.6-11.1-2.46-5.97-2.46-12.91v-165.46q0-11.43 8.11-19.66 8.12-8.22 19.77-8.22 11.66 0 19.87 8.22 8.21 8.23 8.21 19.66v156.69Z"/></svg>