<svg xmlns="http://www.w3.org/2000/svg" height="24px" viewBox="0 -960 960 960" width="24px" fill="#e8eaed"><path d="M500.17-302.26q8.21-8.22 8.21-19.86v-169.19q0-11.41-8.22-19.65-8.23-8.23-19.77-8.23t-19.75 8.23q-8.22 8.24-8.22 19.65v169.19q0 11.64 8.23 19.86 8.22 8.22 19.77 8.22 11.54 0 19.75-8.22Zm1.64-291.65q8.88-8.69 8.88-21.91t-8.68-22.01q-8.68-8.78-21.9-8.78-13.23 0-22.01 8.68-8.79 8.68-8.79 21.9 0 13.22 8.78 22.01 8.78 8.79 21.8 8.79 13.03 0 21.92-8.68Zm-21.72 485.83q-77.15 0-145.06-29.32-67.92-29.33-118.16-79.6-50.23-50.27-79.51-118.05-29.28-67.79-29.28-144.86 0-77.15 29.32-145.06 29.33-67.92 79.6-118.16 50.27-50.23 118.05-79.51 67.79-29.28 144.86-29.28 77.15 0 145.06 29.32 67.92 29.33 118.16 79.6 50.23 50.27 79.51 118.05 29.28 67.79 29.28 144.86 0 77.15-29.32 145.06-29.33 67.92-79.6 118.16-50.27 50.23-118.05 79.51-67.79 29.28-144.86 29.28Zm-.1-55.96q131.89 0 223.93-92.02 92.04-92.03 92.04-223.93 0-131.89-92.02-223.93-92.03-92.04-223.93-92.04-131.89 0-223.93 92.02-92.04 92.03-92.04 223.93 0 131.89 92.02 223.93 92.03 92.04 223.93 92.04ZM480-480Z"/></svg>