<svg xmlns="http://www.w3.org/2000/svg" height="24px" viewBox="0 -960 960 960" width="24px" fill="#e8eaed"><path d="M164.04-492.08q0 75.35 51.04 128.52 51.04 53.18 125.81 55.56h22.69l-42.35-42.42q-8.11-8.12-8.31-19.58-.19-11.46 8.31-20.15 8.5-8.5 19.87-8.5 11.36 0 19.86 8.5l87.01 86.85q10.22 10.45 10.03 24.11-.19 13.65-10.15 24l-86.89 87.15q-7.98 8.69-19.61 8.69-11.62 0-20.12-8.69-8.11-7.99-8.11-19.51 0-11.53 8.11-20.22L364-250.81h-22.69q-98-3.19-165.62-72.63-67.61-69.44-67.61-168.02 0-100.35 69.44-170.4 69.45-70.06 169.25-70.06h100q11.44 0 19.66 8.22 8.22 8.23 8.22 19.77 0 11.55-8.22 19.76t-19.66 8.21h-100q-76.3 0-129.51 53.41-53.22 53.41-53.22 130.47Zm425.07 185.31h234.93q11.44 0 19.66 8.23 8.22 8.22 8.22 19.77 0 11.54-8.22 19.75t-19.66 8.21H589.11q-11.63 0-19.75-8.22-8.13-8.23-8.13-19.77 0-11.55 8.13-19.76 8.12-8.21 19.75-8.21Zm0-212.58h234.93q11.44 0 19.66 8.23 8.22 8.22 8.22 19.77 0 11.54-8.22 19.75t-19.66 8.21H589.11q-11.63 0-19.75-8.22-8.13-8.22-8.13-19.77 0-11.54 8.13-19.75 8.12-8.22 19.75-8.22Zm-2.73-212.57h237.66q11.44 0 19.66 8.22 8.22 8.23 8.22 19.77 0 11.55-8.22 19.76t-19.66 8.21H586.38q-11.63 0-19.85-8.23-8.22-8.22-8.22-19.77 0-11.54 8.22-19.75t19.85-8.21Z"/></svg>