<svg xmlns="http://www.w3.org/2000/svg" height="24px" viewBox="0 -960 960 960" width="24px" fill="#e8eaed"><path d="M293.65-412.12h80q11.45 0 19.67-8.12 8.22-8.13 8.22-19.77 0-11.64-8.22-19.85-8.22-8.22-19.67-8.22h-80q-11.63 0-19.85 8.23-8.22 8.22-8.22 19.86 0 11.64 8.22 19.76 8.22 8.11 19.85 8.11Zm458.7-80q-45 0-76.47-31.41-31.46-31.42-31.46-76.42 0-45.01 31.43-76.57 31.43-31.56 76.46-31.56 14.92 0 27.21 3.83 12.29 3.83 24.9 12.44v-182.04q0-14.25 9.9-24.24 9.89-9.99 24.14-9.99h73.85q11.63 0 19.85 8.23 8.22 8.22 8.22 19.86 0 11.64-8.22 19.76-8.22 8.11-19.85 8.11h-51.93V-600q0 45.03-31.51 76.45-31.51 31.43-76.52 31.43Zm-458.7-40h200q11.45 0 19.67-8.12 8.22-8.13 8.22-19.77 0-11.64-8.22-19.85-8.22-8.22-19.67-8.22h-200q-11.63 0-19.85 8.23-8.22 8.22-8.22 19.86 0 11.64 8.22 19.76 8.22 8.11 19.85 8.11Zm0-120h200q11.45 0 19.67-8.12 8.22-8.13 8.22-19.77 0-11.64-8.22-19.85-8.22-8.22-19.67-8.22h-200q-11.63 0-19.85 8.23-8.22 8.22-8.22 19.86 0 11.64 8.22 19.76 8.22 8.11 19.85 8.11Zm309.62 390H244.38l-70.57 70.58q-5.12 5.11-11.39 7.73-6.26 2.61-12.74 2.61-13.33 0-23.72-9.34-10.38-9.35-10.38-25.06v-574.21q0-28.21 20.03-48.24t48.24-20.03h419.42q28.21 0 48.24 20.03t20.03 48.24v17.58q-16.23 7.69-30.23 18.21t-25.73 23.44v-59.23q0-5.19-3.46-8.75-3.47-3.56-8.85-3.56H183.85q-5.39 0-8.85 3.56t-3.46 8.75v521.27l49.04-49.54h382.69q5.38 0 8.85-3.46 3.46-3.46 3.46-8.85v-139.22q11.73 13.11 25.73 23.63t30.23 18.02v97.57q0 28.41-20.03 48.34-20.03 19.93-48.24 19.93Zm-431.73-55.96v-484.04 484.04Z"/></svg>