<svg xmlns="http://www.w3.org/2000/svg" height="24px" viewBox="0 -960 960 960" width="24px" fill="#e8eaed"><path d="M215.45-147.27q-28.41 0-48.29-19.89-19.89-19.88-19.89-48.29v-529.1q0-28.41 19.89-48.29 19.88-19.89 48.33-19.89h218.82q11.43 0 19.66 8.21 8.22 8.21 8.22 19.77 0 11.56-8.22 19.77-8.23 8.21-19.66 8.21H215.54q-4.62 0-8.46 3.85-3.85 3.84-3.85 8.46v528.92q0 4.62 3.85 8.46 3.84 3.85 8.46 3.85h528.92q4.62 0 8.46-3.85 3.85-3.84 3.85-8.46v-218.77q0-11.43 8.21-19.66 8.21-8.22 19.77-8.22 11.56 0 19.77 8.22 8.21 8.23 8.21 19.66v218.82q0 28.45-19.89 48.33-19.88 19.89-48.29 19.89h-529.1Zm541.32-570.27L409.54-370.12q-8.04 7.81-19.23 8-11.19.2-19.79-8.4t-8.6-19.71q0-11.12 8.7-19.62l346.92-346.92H581.61q-11.65 0-19.86-8.21-8.21-8.21-8.21-19.77 0-11.56 8.21-19.77 8.21-8.21 19.86-8.21h197.08q14.13 0 24.08 9.96 9.96 9.95 9.96 24.08v197.08q0 11.65-8.21 19.86-8.21 8.21-19.77 8.21-11.56 0-19.77-8.21-8.21-8.21-8.21-19.86v-135.93Z"/></svg>