<svg xmlns="http://www.w3.org/2000/svg" height="24px" viewBox="0 -960 960 960" width="24px" fill="#e8eaed"><path d="M164.54-333.23q-11.64 0-19.86-8.23-8.22-8.22-8.22-19.77 0-11.54 8.22-19.75t19.86-8.21h224.04q11.44 0 19.66 8.22 8.22 8.23 8.22 19.77 0 11.55-8.22 19.76t-19.66 8.21H164.54Zm0-158.39q-11.64 0-19.86-8.22-8.22-8.23-8.22-19.77t8.22-19.75q8.22-8.22 19.86-8.22h381.62q11.44 0 19.66 8.23 8.22 8.22 8.22 19.77 0 11.54-8.22 19.75t-19.66 8.21H164.54Zm0-157.57q-11.64 0-19.86-8.23-8.22-8.22-8.22-19.77 0-11.54 8.22-19.75t19.86-8.21h381.62q11.44 0 19.66 8.22 8.22 8.23 8.22 19.77t-8.22 19.76q-8.22 8.21-19.66 8.21H164.54Zm493.67 465.31Q650-192.1 650-203.73v-129.5H520.5q-11.63 0-19.86-8.23-8.22-8.22-8.22-19.77 0-11.54 8.22-19.75 8.23-8.21 19.86-8.21H650v-130.5q0-11.44 8.23-19.67 8.22-8.22 19.76-8.22 11.55 0 19.76 8.22 8.21 8.23 8.21 19.67v130.5h130.5q11.44 0 19.66 8.22 8.23 8.23 8.23 19.77 0 11.55-8.23 19.76-8.22 8.21-19.66 8.21h-130.5v129.5q0 11.63-8.22 19.85-8.23 8.23-19.77 8.23-11.55 0-19.76-8.23Z"/></svg>