<svg xmlns="http://www.w3.org/2000/svg" height="24px" viewBox="0 -960 960 960" width="24px" fill="#e8eaed"><path d="M652.15-303.04v-354.11q0-11.46 8.21-19.68 8.22-8.21 19.77-8.21 11.56 0 19.77 8.21 8.21 8.22 8.21 19.68v354.11q0 11.65-8.21 19.87-8.21 8.21-19.77 8.21-11.55 0-19.77-8.21-8.21-8.22-8.21-19.87Zm-400.26-36.08v-281.96q0-15.46 10.28-25 10.29-9.53 23.95-9.53 4.8 0 9.57 1.25 4.77 1.25 9.2 4.36l211.57 141.69q7.73 5.12 11.5 12.5 3.77 7.39 3.77 15.81 0 8.42-3.77 15.81-3.77 7.38-11.5 12.5l-211.57 141.5q-4.43 3.3-9.2 4.46-4.77 1.15-9.57 1.15-13.66 0-23.95-9.44-10.28-9.44-10.28-25.1Z"/></svg>