<svg xmlns="http://www.w3.org/2000/svg" height="24px" viewBox="0 -960 960 960" width="24px" fill="#e8eaed"><path d="M398.19-847.58q-11.65 0-19.86-8.21-8.21-8.21-8.21-19.77 0-11.56 8.21-19.77 8.21-8.21 19.86-8.21H562q11.46 0 19.67 8.21t8.21 19.77q0 11.56-8.21 19.77-8.21 8.21-19.67 8.21H398.19Zm101.67 428.45q8.22-8.22 8.22-19.87v-163q0-11.46-8.22-19.67-8.21-8.21-19.86-8.21-11.65 0-19.77 8.21-8.11 8.21-8.11 19.67v163q0 11.65 8.11 19.87 8.12 8.21 19.77 8.21t19.86-8.21ZM350.83-134.29q-60.64-26.21-105.89-71.46-45.25-45.25-71.46-105.89-26.21-60.63-26.21-129.32t26.21-129.17q26.21-60.48 71.46-105.73 45.25-45.25 105.89-71.47 60.63-26.21 129.17-26.21 61.38 0 115.02 20.64 53.63 20.63 100.02 57.63l28.77-28.77q7.8-7.8 19.27-8.15 11.46-.35 20.05 8.25 8.6 8.6 8.6 19.71 0 11.12-8.5 19.62l-28.77 28.76q36.69 45.58 57.48 99.62 20.79 54.04 20.79 115.42 0 68.54-26.21 129.17-26.21 60.64-71.46 105.89-45.25 45.25-105.73 71.46-60.48 26.21-129.18 26.21-68.69 0-129.32-26.21Zm325-110.69q80.94-80.94 80.94-195.83 0-114.88-80.94-195.82-80.95-80.95-195.83-80.95-114.88 0-195.83 80.95-80.94 80.94-80.94 195.82 0 114.89 80.94 195.83 80.95 80.94 195.83 80.94 114.88 0 195.83-80.94ZM480-440.81Z"/></svg>